<?xml version="1.0" encoding="utf-8"?>
<!-- Generator: Adobe Illustrator 18.0.0, SVG Export Plug-In . SVG Version: 6.00 Build 0)  -->
<!DOCTYPE svg PUBLIC "-//W3C//DTD SVG 1.1//EN" "http://www.w3.org/Graphics/SVG/1.1/DTD/svg11.dtd">
<svg version="1.1" id="Layer_1" xmlns="http://www.w3.org/2000/svg" xmlns:xlink="http://www.w3.org/1999/xlink" x="0px" y="0px"
	 viewBox="0 0 64 64" enable-background="new 0 0 64 64" xml:space="preserve">
<g>
	<g id="XMLID_2_">
		<g>
			<g>
				<g>
					<path fill="#5D717F" d="M58,6v52c0,2.8-2.2,5-5,5H10.9c-2.8,0-5-2.2-5-5V6c0-2.8,2.3-5,5-5H53C55.8,1,58,3.2,58,6z M51,17.7V9
						c0-1.1-0.9-2-2-2H14.7c-1.1,0-2,0.9-2,2v8.7c0,1.1,0.9,2,2,2H49C50.1,19.7,51,18.8,51,17.7z M50,56.9V38.8c0-0.6-0.5-1-1-1
						h-6.2c-0.5,0-1,0.4-1,1v18.1c0,0.6,0.5,1,1,1H49C49.5,57.9,50,57.5,50,56.9z M50,32v-5c0-0.5-0.5-1-1-1h-6.2c-0.5,0-1,0.5-1,1
						v5c0,0.5,0.5,1,1,1H49C49.5,33,50,32.5,50,32z M36,56v-5c0-0.5-0.5-1-1-1h-6.2c-0.6,0-1,0.5-1,1v5c0,0.5,0.4,1,1,1H35
						C35.5,57,36,56.5,36,56z M36,44v-5c0-0.5-0.5-1-1-1h-6.2c-0.6,0-1,0.5-1,1v5c0,0.5,0.4,1,1,1H35C35.5,45,36,44.5,36,44z M36,32
						v-5c0-0.5-0.5-1-1-1h-6.2c-0.6,0-1,0.5-1,1v5c0,0.5,0.4,1,1,1H35C35.5,33,36,32.5,36,32z M22.2,56v-5c0-0.5-0.5-1-1-1H15
						c-0.6,0-1,0.5-1,1v5c0,0.5,0.4,1,1,1h6.2C21.8,57,22.2,56.5,22.2,56z M22.2,44v-5c0-0.5-0.5-1-1-1H15c-0.6,0-1,0.5-1,1v5
						c0,0.5,0.4,1,1,1h6.2C21.8,45,22.2,44.5,22.2,44z M22.2,32v-5c0-0.5-0.5-1-1-1H15c-0.6,0-1,0.5-1,1v5c0,0.5,0.4,1,1,1h6.2
						C21.8,33,22.2,32.5,22.2,32z"/>
				</g>
			</g>
			<g>
				<g>
					<path fill="#ADED70" d="M51,9v8.7c0,1.1-0.9,2-2,2H14.7c-1.1,0-2-0.9-2-2V9c0-1.1,0.9-2,2-2H49C50.1,7,51,7.9,51,9z"/>
				</g>
			</g>
			<g>
				<g>
					<path fill="#F76D37" d="M50,38.8v18.1c0,0.6-0.5,1-1,1h-6.2c-0.5,0-1-0.4-1-1V38.8c0-0.6,0.5-1,1-1H49
						C49.5,37.8,50,38.3,50,38.8z"/>
				</g>
			</g>
			<g>
				<g>
					<path fill="#90BDD3" d="M50,27v5c0,0.5-0.5,1-1,1h-6.2c-0.5,0-1-0.5-1-1v-5c0-0.5,0.5-1,1-1H49C49.5,26,50,26.5,50,27z"/>
				</g>
			</g>
			<g>
				<g>
					<path fill="#90BDD3" d="M36,51v5c0,0.5-0.5,1-1,1h-6.2c-0.6,0-1-0.5-1-1v-5c0-0.5,0.4-1,1-1H35C35.5,50,36,50.5,36,51z"/>
				</g>
			</g>
			<g>
				<g>
					<path fill="#90BDD3" d="M36,39v5c0,0.5-0.5,1-1,1h-6.2c-0.6,0-1-0.5-1-1v-5c0-0.5,0.4-1,1-1H35C35.5,38,36,38.5,36,39z"/>
				</g>
			</g>
			<g>
				<g>
					<path fill="#90BDD3" d="M36,27v5c0,0.5-0.5,1-1,1h-6.2c-0.6,0-1-0.5-1-1v-5c0-0.5,0.4-1,1-1H35C35.5,26,36,26.5,36,27z"/>
				</g>
			</g>
			<g>
				<g>
					<path fill="#90BDD3" d="M22.2,51v5c0,0.5-0.5,1-1,1H15c-0.6,0-1-0.5-1-1v-5c0-0.5,0.4-1,1-1h6.2C21.8,50,22.2,50.5,22.2,51z"/>
				</g>
			</g>
			<g>
				<g>
					<path fill="#90BDD3" d="M22.2,39v5c0,0.5-0.5,1-1,1H15c-0.6,0-1-0.5-1-1v-5c0-0.5,0.4-1,1-1h6.2C21.8,38,22.2,38.5,22.2,39z"/>
				</g>
			</g>
			<g>
				<g>
					<path fill="#90BDD3" d="M22.2,27v5c0,0.5-0.5,1-1,1H15c-0.6,0-1-0.5-1-1v-5c0-0.5,0.4-1,1-1h6.2C21.8,26,22.2,26.5,22.2,27z"/>
				</g>
			</g>
		</g>
		<g>
			<g>
				<g>
					<path fill="#2C2C3D" d="M53,64H10.9c-3.3,0-6-2.7-6-6V6c0-3.3,2.7-6,6-6H53c3.3,0,6,2.7,6,6v52C59,61.3,56.3,64,53,64z M10.9,2
						c-2.2,0-4,1.8-4,4v52c0,2.2,1.8,4,4,4H53c2.2,0,4-1.8,4-4V6c0-2.2-1.8-4-4-4H10.9z"/>
				</g>
			</g>
			<g>
				<g>
					<path fill="#2C2C3D" d="M49,20.7H14.7c-1.7,0-3-1.3-3-3V9c0-1.7,1.3-3,3-3H49c1.7,0,3,1.3,3,3v8.7C52,19.4,50.7,20.7,49,20.7z
						 M14.7,8c-0.6,0-1,0.4-1,1v8.7c0,0.6,0.4,1,1,1H49c0.6,0,1-0.4,1-1V9c0-0.6-0.4-1-1-1H14.7z"/>
				</g>
			</g>
			<g>
				<g>
					<path fill="#2C2C3D" d="M21.2,34H15c-1.1,0-2-0.9-2-2v-5c0-1.1,0.9-2,2-2h6.2c1.1,0,2,0.9,2,2v5C23.2,33.1,22.4,34,21.2,34z
						 M21.2,32v1V32L21.2,32L21.2,32z M15,27v5h6.2l0-5H15z"/>
				</g>
			</g>
			<g>
				<g>
					<path fill="#2C2C3D" d="M35,34h-6.2c-1.1,0-2-0.9-2-2v-5c0-1.1,0.9-2,2-2H35c1.1,0,2,0.9,2,2v5C37,33.1,36.1,34,35,34z M35,32
						v1V32L35,32L35,32z M28.8,27v5H35l0-5H28.8z"/>
				</g>
			</g>
			<g>
				<g>
					<path fill="#2C2C3D" d="M49,34h-6.2c-1.1,0-2-0.9-2-2v-5c0-1.1,0.9-2,2-2H49c1.1,0,2,0.9,2,2v5C51,33.1,50.1,34,49,34z M49,32
						v1V32L49,32L49,32z M42.8,27v5H49l0-5H42.8z"/>
				</g>
			</g>
			<g>
				<g>
					<path fill="#2C2C3D" d="M21.2,46H15c-1.1,0-2-0.9-2-2v-5c0-1.1,0.9-2,2-2h6.2c1.1,0,2,0.9,2,2v5C23.2,45.1,22.4,46,21.2,46z
						 M21.2,44v1V44L21.2,44L21.2,44z M15,39v5h6.2l0-5H15z"/>
				</g>
			</g>
			<g>
				<g>
					<path fill="#2C2C3D" d="M35,46h-6.2c-1.1,0-2-0.9-2-2v-5c0-1.1,0.9-2,2-2H35c1.1,0,2,0.9,2,2v5C37,45.1,36.1,46,35,46z M35,44
						v1V44L35,44L35,44z M28.8,39v5H35l0-5H28.8z"/>
				</g>
			</g>
			<g>
				<g>
					<path fill="#2C2C3D" d="M49,58.9h-6.2c-1.1,0-2-0.9-2-2V38.8c0-1.1,0.9-2,2-2H49c1.1,0,2,0.9,2,2v18.1C51,58,50.1,58.9,49,58.9
						z M49,56.9v1V56.9L49,56.9L49,56.9z M42.8,38.8v18.1H49l0-18.1H42.8z"/>
				</g>
			</g>
			<g>
				<g>
					<path fill="#2C2C3D" d="M21.2,58H15c-1.1,0-2-0.9-2-2v-5c0-1.1,0.9-2,2-2h6.2c1.1,0,2,0.9,2,2v5C23.2,57.1,22.4,58,21.2,58z
						 M21.2,56v1V56L21.2,56L21.2,56z M15,51v5h6.2l0-5H15z"/>
				</g>
			</g>
			<g>
				<g>
					<path fill="#2C2C3D" d="M35,58h-6.2c-1.1,0-2-0.9-2-2v-5c0-1.1,0.9-2,2-2H35c1.1,0,2,0.9,2,2v5C37,57.1,36.1,58,35,58z M35,56
						v1V56L35,56L35,56z M28.8,51v5H35l0-5H28.8z"/>
				</g>
			</g>
		</g>
	</g>
</g>
</svg>
